<?xml version="1.0" encoding="utf-8"?>
<!-- Generator: Adobe Illustrator 19.1.0, SVG Export Plug-In . SVG Version: 6.00 Build 0)  -->
<svg version="1.1" xmlns="http://www.w3.org/2000/svg" xmlns:xlink="http://www.w3.org/1999/xlink" x="0px" y="0px" width="18px"
	 height="18px" viewBox="0 0 18 18" enable-background="new 0 0 18 18" xml:space="preserve">
<g id="Bounding_Boxes">
	<g id="ui_x5F_spec_x5F_header_copy_3" display="none">
	</g>
	<g>
		<path fill="none" d="M0,0h18v18H0V0z"/>
	</g>
</g>
<g id="Rounded" display="none">
	<g id="ui_x5F_spec_x5F_header_copy_5">
	</g>
	<path display="inline" d="M9,11.3l2.46,1.79c0.39,0.29,0.92-0.1,0.77-0.56l-0.94-2.89l2.43-1.73C14.12,7.63,13.92,7,13.43,7h-2.98
		L9.48,3.98c-0.15-0.46-0.8-0.46-0.95,0L7.55,7H4.57C4.08,7,3.88,7.63,4.28,7.91l2.43,1.73l-0.94,2.89
		c-0.15,0.46,0.38,0.84,0.77,0.56L9,11.3z"/>
</g>
<g id="Sharp" display="none">
	<g id="ui_x5F_spec_x5F_header_copy_4">
	</g>
	<path display="inline" d="M9,11.3l3.71,2.7l-1.42-4.36L15,7h-4.55L9,2.5L7.55,7H3l3.71,2.64L5.29,14L9,11.3z"/>
</g>
<g id="Outline">
	<g id="ui_x5F_spec_x5F_header" display="none">
	</g>
	<g>
		<path d="M9,11.3l3.71,2.7l-1.42-4.36L15,7h-4.55L9,2.5L7.55,7H3l3.71,2.64L5.29,14L9,11.3z"/>
	</g>
</g>
<g id="Duotone" display="none">
	<g id="ui_x5F_spec_x5F_header_copy_2">
	</g>
	<g display="inline">
		<path d="M9,11.3l3.71,2.7l-1.42-4.36L15,7h-4.55L9,2.5L7.55,7H3l3.71,2.64L5.29,14L9,11.3z"/>
	</g>
</g>
<g id="Material" display="none">
	<g id="ui_x5F_spec_x5F_header_copy">
	</g>
	<path display="inline" d="M9,11.3l3.71,2.7l-1.42-4.36L15,7h-4.55L9,2.5L7.55,7H3l3.71,2.64L5.29,14L9,11.3z"/>
</g>
</svg>
